<svg width="71" height="72" viewBox="0 0 71 72" fill="none" xmlns="http://www.w3.org/2000/svg">
<path d="M22.7927 14.1366C22.7927 16.3457 21.0018 18.1366 18.7927 18.1366C16.5835 18.1366 14.7927 16.3457 14.7927 14.1366C14.7927 11.9274 16.5835 10.1366 18.7927 10.1366C21.0018 10.1366 22.7927 11.9274 22.7927 14.1366Z" fill="#D9D9D9"/>
<path d="M18.7927 52.1366C18.7927 54.3457 17.0018 56.1366 14.7927 56.1366C12.5835 56.1366 10.7927 54.3457 10.7927 52.1366C10.7927 49.9274 12.5835 48.1366 14.7927 48.1366C17.0018 48.1366 18.7927 49.9274 18.7927 52.1366Z" fill="#D9D9D9"/>
<path d="M56.7927 56.1366C56.7927 58.3457 55.0018 60.1366 52.7927 60.1366C50.5835 60.1366 48.7927 58.3457 48.7927 56.1366C48.7927 53.9274 50.5835 52.1366 52.7927 52.1366C55.0018 52.1366 56.7927 53.9274 56.7927 56.1366Z" fill="#D9D9D9"/>
<path d="M60.7927 18.1366C60.7927 20.3457 59.0018 22.1366 56.7927 22.1366C54.5835 22.1366 52.7927 20.3457 52.7927 18.1366C52.7927 15.9274 54.5835 14.1366 56.7927 14.1366C59.0018 14.1366 60.7927 15.9274 60.7927 18.1366Z" fill="#D9D9D9"/>
<path d="M1.41439 39.2666C3.2234 37.5625 6.07137 37.6475 7.77551 39.4565L10.8289 42.6977C12.533 44.5067 12.448 47.3547 10.639 49.0589C8.82999 50.763 5.98202 50.678 4.27787 48.869L1.22451 45.6277C-0.479633 43.8187 -0.394624 40.9707 1.41439 39.2666Z" fill="#D9D9D9"/>
<path d="M60.0682 21.2222C61.8772 19.518 64.7252 19.6031 66.4293 21.4121L69.4827 24.6533C71.1868 26.4623 71.1018 29.3103 69.2928 31.0144C67.4838 32.7186 64.6358 32.6336 62.9317 30.8246L59.8783 27.5833C58.1742 25.7743 58.2592 22.9263 60.0682 21.2222Z" fill="#D9D9D9"/>
<path d="M31.406 1.27793C33.1855 3.01286 33.2217 5.86188 31.4867 7.64138L28.3782 10.8298C26.6433 12.6093 23.7942 12.6454 22.0147 10.9105C20.2352 9.17553 20.1991 6.32651 21.9341 4.54701L25.0426 1.35863C26.7775 -0.420875 29.6265 -0.457006 31.406 1.27793Z" fill="#D9D9D9"/>
<path d="M49.406 60.2779C51.1855 62.0129 51.2217 64.8619 49.4867 66.6414L46.3782 69.8298C44.6433 71.6093 41.7942 71.6454 40.0147 69.9105C38.2352 68.1755 38.1991 65.3265 39.9341 63.547L43.0426 60.3586C44.7775 58.5791 47.6265 58.543 49.406 60.2779Z" fill="#D9D9D9"/>
<path d="M64.7104 40.6766C62.9531 42.4339 60.1038 42.4339 58.3465 40.6766L39.9747 22.3047C38.2173 20.5474 38.2173 17.6981 39.9747 15.9408C41.732 14.1834 44.5813 14.1834 46.3386 15.9408L64.7104 34.3126C66.4678 36.07 66.4678 38.9192 64.7104 40.6766Z" fill="#B58392"/>
<path d="M64.7104 40.6766C62.9531 42.4339 60.1038 42.4339 58.3465 40.6766L39.9747 22.3047C38.2173 20.5474 38.2173 17.6981 39.9747 15.9408C41.732 14.1834 44.5813 14.1834 46.3386 15.9408L64.7104 34.3126C66.4678 36.07 66.4678 38.9192 64.7104 40.6766Z" fill="black" fill-opacity="0.2"/>
<path d="M51.9514 10.3185C53.7088 12.0759 53.7088 14.9251 51.9514 16.6825L46.3386 22.2953C44.5813 24.0526 41.732 24.0526 39.9747 22.2953C38.2173 20.5379 38.2173 17.6887 39.9747 15.9313L45.5874 10.3185C47.3448 8.56118 50.194 8.56118 51.9514 10.3185Z" fill="#B58392"/>
<path d="M5.97466 30.3185C7.73202 28.5612 10.5813 28.5612 12.3386 30.3185L30.7105 48.6904C32.4678 50.4477 32.4678 53.297 30.7105 55.0543C28.9531 56.8117 26.1039 56.8117 24.3465 55.0543L5.97466 36.6825C4.2173 34.9251 4.2173 32.0759 5.97466 30.3185Z" fill="#B58392"/>
<path d="M5.97466 30.3185C7.73202 28.5612 10.5813 28.5612 12.3386 30.3185L30.7105 48.6904C32.4678 50.4477 32.4678 53.297 30.7105 55.0543C28.9531 56.8117 26.1039 56.8117 24.3465 55.0543L5.97466 36.6825C4.2173 34.9251 4.2173 32.0759 5.97466 30.3185Z" fill="black" fill-opacity="0.2"/>
<path d="M18.7337 60.6766C16.9763 58.9192 16.9763 56.07 18.7337 54.3126L24.3465 48.6998C26.1039 46.9425 28.9531 46.9425 30.7105 48.6998C32.4678 50.4572 32.4678 53.3064 30.7105 55.0638L25.0977 60.6766C23.3403 62.4339 20.4911 62.4339 18.7337 60.6766Z" fill="#B58392"/>
<path d="M55.6056 39.5279C57.3757 41.2724 57.3965 44.1215 55.6521 45.8917L34.0208 67.8411C32.2764 69.6113 29.4272 69.6321 27.6571 67.8876C25.8869 66.1431 25.8661 63.2939 27.6106 61.5238L49.2418 39.5743C50.9863 37.8042 53.8354 37.7834 55.6056 39.5279Z" fill="#F2AA5B"/>
<path d="M55.6056 39.5279C57.3757 41.2724 57.3965 44.1215 55.6521 45.8917L34.0208 67.8411C32.2764 69.6113 29.4272 69.6321 27.6571 67.8876C25.8869 66.1431 25.8661 63.2939 27.6106 61.5238L49.2418 39.5743C50.9863 37.8042 53.8354 37.7834 55.6056 39.5279Z" fill="black" fill-opacity="0.2"/>
<path d="M61.0196 51.7963C59.2097 53.4996 56.3618 53.4132 54.6585 51.6034L49.2185 45.823C47.5152 44.0132 47.6016 41.1653 49.4114 39.462C51.2213 37.7587 54.0692 37.8451 55.7725 39.6549L61.2125 45.4353C62.9158 47.2451 62.8294 50.0931 61.0196 51.7963Z" fill="#F2AA5B"/>
<path d="M42.6338 3.87262C44.3911 5.62998 44.3911 8.47922 42.6338 10.2366L21.3386 31.5317C19.5813 33.2891 16.732 33.2891 14.9747 31.5317C13.2173 29.7744 13.2173 26.9251 14.9747 25.1678L36.2698 3.87262C38.0272 2.11526 40.8764 2.11526 42.6338 3.87262Z" fill="#F2AA5B"/>
<path d="M42.6338 3.87262C44.3911 5.62998 44.3911 8.47922 42.6338 10.2366L21.3386 31.5317C19.5813 33.2891 16.732 33.2891 14.9747 31.5317C13.2173 29.7744 13.2173 26.9251 14.9747 25.1678L36.2698 3.87262C38.0272 2.11526 40.8764 2.11526 42.6338 3.87262Z" fill="black" fill-opacity="0.2"/>
<path d="M20.9514 31.2953C19.194 33.0527 16.3448 33.0527 14.5874 31.2953L8.97465 25.6825C7.21729 23.9252 7.21729 21.0759 8.97465 19.3186C10.732 17.5612 13.5813 17.5612 15.3386 19.3186L20.9514 24.9313C22.7088 26.6887 22.7088 29.5379 20.9514 31.2953Z" fill="#F2AA5B"/>
<path d="M21.3325 37.8394C20.1609 36.6678 20.1609 34.7683 21.3325 33.5967L33.1714 21.7579C34.3429 20.5863 36.2424 20.5863 37.414 21.7579L49.2528 33.5967C50.4244 34.7683 50.4244 36.6678 49.2528 37.8394L37.414 49.6782C36.2424 50.8498 34.3429 50.8498 33.1714 49.6782L21.3325 37.8394Z" fill="#6750A4"/>
</svg>
